<?xml version="1.0" encoding="UTF-8"?>
<svg width="34px" height="34px" viewBox="0 0 34 34" version="1.1" xmlns="http://www.w3.org/2000/svg" xmlns:xlink="http://www.w3.org/1999/xlink">
    <!-- Generator: Sketch 48.2 (47327) - http://www.bohemiancoding.com/sketch -->
    <title>search_icon</title>
    <desc>Created with Sketch.</desc>
    <defs></defs>
    <g id="foodle-chef-orders" stroke="none" stroke-width="1" fill="none" fill-rule="evenodd" transform="translate(-1226.000000, -135.000000)">
        <path d="M1246.04457,136 C1238.89023,136 1233.09111,141.799224 1233.09111,148.953624 C1233.09111,152.032598 1234.17125,154.856493 1235.96477,157.084548 L1227.40356,165.643946 C1226.86548,166.183998 1226.86548,167.056877 1227.40356,167.594962 C1227.94163,168.135013 1228.81646,168.135013 1229.35454,167.594962 L1237.91575,159.035563 C1240.13977,160.827146 1242.96558,161.907314 1246.04654,161.907314 C1253.20081,161.907314 1259,156.10809 1259,148.953624 C1259,141.799159 1253.19681,136 1246.04457,136 L1246.04457,136 Z M1246.04457,159.914408 C1239.9983,159.914408 1235.08398,154.997963 1235.08398,148.953624 C1235.08398,142.909286 1240.00224,137.99284 1246.04457,137.99284 C1252.0869,137.99284 1257.00516,142.909286 1257.00516,148.953624 C1257.00516,154.997963 1252.0888,159.914408 1246.04457,159.914408 L1246.04457,159.914408 Z" id="search_icon" stroke="#9DA9B7" stroke-width="0.5" fill="#9DA9B7" transform="translate(1243.000000, 152.000000) scale(-1, 1) translate(-1243.000000, -152.000000) "></path>
    </g>
</svg>